<svg width="910" height="192" viewBox="0 0 910 192" fill="none" xmlns="http://www.w3.org/2000/svg">
<path d="M9.49994 3L10.5235 2.44011C11.506 1.90267 12.5322 1.44917 13.591 1.08443C15.6754 0.366473 17.8645 0 20.069 0H171.356C172.91 0 174.461 0.111074 175.999 0.332373L178.519 1.06815C179.504 1.35547 180.46 1.73067 181.377 2.18923L181.533 2.26702C182.507 2.75431 183.428 3.3432 184.279 4.02388C185.09 4.67297 185.834 5.40216 186.499 6.20039L187.999 8L189.664 10.6642C190.218 11.5516 190.666 12.5016 190.997 13.4944C191.33 14.4946 191.543 15.5309 191.63 16.5816L191.716 17.605C191.903 19.8547 191.74 22.1198 191.233 24.3195L190.973 25.4431C190.659 26.807 190.146 28.1175 189.451 29.3328C188.819 30.4393 188.042 31.4566 187.141 32.3578L185.499 34L110.499 92L108.777 93.2917C107.264 94.4261 105.616 95.3679 103.871 96.0951L103.277 96.3425C101.437 97.1093 99.4684 97.5793 97.4807 97.7322C95.1934 97.9081 92.8727 97.6601 90.6764 96.9976C88.9018 96.4623 87.2173 95.6641 85.6791 94.6296L83.9994 93.5L7.99995 35L6.0386 33.0386C5.34705 32.3471 4.70545 31.6073 4.11865 30.8249L3.63919 30.1856C2.55425 28.739 1.72252 27.1189 1.17939 25.3941C0.887319 24.4666 0.680456 23.5144 0.561371 22.5494L0.366192 20.9676C0.123851 19.0037 0.219383 17.0128 0.648649 15.0811C0.88237 14.0293 1.21358 13.0016 1.63799 12.0113L2.49998 10L2.99185 9.18021C3.66141 8.06428 4.46529 7.03468 5.3855 6.11446C6.12666 5.3733 6.93921 4.70716 7.81133 4.12575L9.49994 3Z" fill="#006974"/>
<path d="M0.271653 16.8268L0 19V169.464C0 171.819 0.167085 174.17 0.499997 176.5L1.11289 178.645C1.3704 179.546 1.71095 180.422 2.13015 181.26C2.70767 182.415 3.43039 183.492 4.28077 184.464L5.53836 185.901C6.17816 186.632 6.88155 187.305 7.64024 187.912C8.54418 188.635 9.52198 189.261 10.5574 189.779L10.8643 189.932C11.6204 190.31 12.4024 190.634 13.2044 190.901C14.3981 191.299 15.6304 191.57 16.881 191.709L19.4999 192H169.957C171.982 192 174.002 191.833 175.999 191.5L178.063 190.881C180.008 190.297 181.846 189.407 183.51 188.242L183.601 188.178C185.19 187.066 186.591 185.71 187.754 184.159C188.581 183.057 189.281 181.864 189.841 180.605L190.009 180.227C190.667 178.747 191.159 177.198 191.477 175.61L191.499 175.5L191.801 172.778C191.932 171.598 191.9 170.406 191.705 169.235C191.568 168.414 191.351 167.607 191.059 166.828L189.999 164C188.674 161.351 186.931 158.932 184.836 156.838L183.999 156L34.7675 6.76777C33.5905 5.59074 32.3314 4.49874 30.9998 3.5L28.4998 2C26.1792 1.00543 23.7246 0.358307 21.2153 0.0794891L20.4999 0H19.5611C18.5221 0 17.4848 0.0858486 16.4599 0.25667L16.3789 0.270171C15.461 0.423155 14.5565 0.647813 13.6737 0.942084C12.5606 1.31312 11.4868 1.7932 10.4681 2.37533L8.49994 3.5L8.197 3.72721C7.06706 4.57467 5.9987 5.50126 4.99997 6.5L4.25402 7.43244C3.42032 8.47456 2.69222 9.61552 2.09539 10.8092C1.70195 11.5961 1.36036 12.4189 1.08216 13.2535C0.694998 14.415 0.423511 15.6119 0.271653 16.8268Z" fill="#2C5EA8"/>
<path d="M258.754 48C261.502 48.1017 263.843 49.1192 265.777 51.0525C267.71 52.8839 268.728 55.1733 268.83 57.9205V132.706C268.219 138.811 264.861 142.118 258.754 142.626C255.905 142.626 253.411 141.711 251.274 139.879C249.239 137.946 248.221 135.555 248.221 132.706V57.9205C248.323 55.0715 249.391 52.7313 251.427 50.8998C253.462 48.9666 255.905 48 258.754 48ZM284.859 74.8617C291.677 70.283 300.888 65.6534 312.49 60.973L337.526 50.2893C338.645 49.7806 339.866 49.4754 341.189 49.3736C344.039 49.1701 346.481 50.035 348.517 51.9682C350.552 53.7997 351.57 56.1908 351.57 59.1415C351.57 62.4992 350.858 64.9921 349.433 66.62C348.11 68.1463 346.38 69.4181 344.242 70.4356L322.87 78.5246C318.698 80.1526 314.729 81.7806 310.963 83.4086C307.299 84.9348 303.941 86.7154 300.888 88.7504C297.835 90.5819 296.206 92.6677 296.003 95.008C296.206 97.2464 297.835 99.3323 300.888 101.266C303.941 103.3 307.299 105.132 310.963 106.76C314.729 108.286 318.698 109.863 322.87 111.491L346.685 120.191C348.822 121.208 350.552 122.531 351.875 124.159C353.3 125.685 354.013 128.127 354.013 131.485C354.013 134.436 352.995 136.878 350.959 138.811C348.924 140.642 346.481 141.456 343.632 141.253C342.309 141.151 341.088 140.846 339.968 140.337L312.49 129.043C300.888 124.362 291.627 119.733 284.706 115.154C277.887 110.474 274.427 103.758 274.325 95.008C274.427 86.2576 277.938 79.5421 284.859 74.8617Z" fill="#2C5EA8"/>
<path d="M410.313 144C405.02 144 399.779 143.39 394.589 142.169C389.5 140.948 384.615 139.167 379.934 136.827C375.252 134.385 371.13 131.18 367.568 127.211C364.006 123.243 362.073 118.512 361.768 113.018V57.9205C361.768 55.0715 362.785 52.7313 364.821 50.8998C366.958 48.9666 369.451 48 372.301 48C378.407 48.5087 381.715 51.8156 382.224 57.9205V108.286C382.427 111.44 383.598 114.086 385.735 116.223C387.974 118.258 390.416 119.886 393.062 121.107C395.81 122.328 398.609 123.243 401.458 123.854C404.41 124.464 407.361 124.769 410.313 124.769C413.264 124.769 416.164 124.464 419.014 123.854C421.965 123.243 424.764 122.328 427.41 121.107C430.158 119.886 432.601 118.258 434.738 116.223C436.977 114.086 438.198 111.44 438.402 108.286V57.9205C438.402 55.0715 439.419 52.7313 441.455 50.8998C443.592 48.9666 446.085 48 448.935 48C455.041 48.5087 458.4 51.8156 459.01 57.9205V113.018C458.705 118.512 456.72 123.243 453.057 127.211C449.495 131.18 445.373 134.385 440.691 136.827C436.01 139.167 431.074 140.948 425.884 142.169C420.795 143.39 415.605 144 410.313 144Z" fill="#2C5EA8"/>
<path d="M709.582 48C712.33 48.1017 714.671 49.1192 716.604 51.0525C718.538 52.8839 719.556 55.1733 719.657 57.9205V132.706C719.047 138.811 715.688 142.118 709.582 142.626C706.732 142.626 704.239 141.711 702.102 139.879C700.066 137.946 699.049 135.555 699.049 132.706V57.9205C699.15 55.0715 700.219 52.7313 702.255 50.8998C704.29 48.9666 706.732 48 709.582 48ZM735.686 74.8617C742.505 70.283 751.716 65.6534 763.317 60.973L788.353 50.2893C789.473 49.7806 790.694 49.4754 792.017 49.3736C794.867 49.1701 797.309 50.035 799.345 51.9682C801.38 53.7997 802.398 56.1908 802.398 59.1415C802.398 62.4992 801.685 64.9921 800.261 66.62C798.938 68.1463 797.207 69.4181 795.07 70.4356L773.698 78.5246C769.526 80.1526 765.556 81.7806 761.791 83.4086C758.127 84.9348 754.769 86.7154 751.716 88.7504C748.662 90.5819 747.034 92.6677 746.83 95.008C747.034 97.2464 748.662 99.3323 751.716 101.266C754.769 103.3 758.127 105.132 761.791 106.76C765.556 108.286 769.526 109.863 773.698 111.491L797.513 120.191C799.65 121.208 801.38 122.531 802.703 124.159C804.128 125.685 804.84 128.127 804.84 131.485C804.84 134.436 803.823 136.878 801.787 138.811C799.752 140.642 797.309 141.456 794.46 141.253C793.137 141.151 791.915 140.846 790.796 140.337L763.317 129.043C751.716 124.362 742.454 119.733 735.534 115.154C728.715 110.474 725.255 103.758 725.153 95.008C725.255 86.2576 728.766 79.5421 735.686 74.8617Z" fill="#2C5EA8"/>
<path d="M861.14 144C855.848 144 850.607 143.39 845.417 142.169C840.328 140.948 835.443 139.167 830.761 136.827C826.08 134.385 821.958 131.18 818.396 127.211C814.834 123.243 812.901 118.512 812.595 113.018V57.9205C812.595 55.0715 813.613 52.7313 815.648 50.8998C817.786 48.9666 820.279 48 823.129 48C829.235 48.5087 832.542 51.8156 833.051 57.9205V108.286C833.255 111.44 834.425 114.086 836.562 116.223C838.801 118.258 841.244 119.886 843.89 121.107C846.638 122.328 849.437 123.243 852.286 123.854C855.238 124.464 858.189 124.769 861.14 124.769C864.092 124.769 866.992 124.464 869.842 123.854C872.793 123.243 875.592 122.328 878.238 121.107C880.986 119.886 883.428 118.258 885.565 116.223C887.804 114.086 889.026 111.44 889.229 108.286V57.9205C889.229 55.0715 890.247 52.7313 892.282 50.8998C894.42 48.9666 896.913 48 899.763 48C905.869 48.5087 909.227 51.8156 909.838 57.9205V113.018C909.533 118.512 907.548 123.243 903.884 127.211C900.322 131.18 896.201 134.385 891.519 136.827C886.838 139.167 881.902 140.948 876.711 142.169C871.623 143.39 866.432 144 861.14 144Z" fill="#2C5EA8"/>
<path d="M537.751 50.442C544.875 50.849 550.727 53.5962 555.307 58.6836C559.886 63.6693 563.194 69.3673 565.229 75.7774C567.265 82.1876 568.282 88.7504 568.282 95.4658C568.282 102.181 567.265 108.744 565.229 115.154C563.296 121.564 559.988 127.313 555.307 132.401C550.727 137.386 544.875 140.083 537.751 140.49H481.573C478.825 140.388 476.484 139.421 474.551 137.59C472.719 135.657 471.752 133.316 471.65 130.569V92.7186C471.752 89.8696 472.821 87.5294 474.856 85.6979C476.892 83.7647 479.334 82.7981 482.184 82.7981C484.931 82.8998 487.272 83.9173 489.206 85.8506C491.14 87.682 492.157 89.9714 492.259 92.7186V115.917C492.259 118.665 493.684 120.038 496.533 120.038H532.561C536.428 119.835 539.634 118.359 542.178 115.612C544.722 112.865 546.554 109.762 547.674 106.302C548.895 102.741 549.506 99.1288 549.506 95.4658C549.506 91.8029 548.895 88.2417 547.674 84.7822C546.554 81.221 544.722 78.0668 542.178 75.3196C539.634 72.5723 536.428 71.097 532.561 70.8935H481.573C475.467 70.3847 472.159 67.0779 471.65 60.973C471.65 58.124 472.566 55.682 474.398 53.6471C476.332 51.6121 478.723 50.5437 481.573 50.442H537.751Z" fill="#006974"/>
<path d="M659.083 50.442C664.273 50.5437 668.904 52.1717 672.975 55.3259C677.046 58.4801 680.302 62.2448 682.745 66.62C685.289 70.9952 687.172 75.6248 688.393 80.5088C689.614 85.3927 690.225 90.3784 690.225 95.4658C690.225 102.181 689.156 108.795 687.019 115.307C684.984 121.717 681.575 127.415 676.791 132.401C672.11 137.386 666.207 140.083 659.083 140.49H605.806C598.682 140.184 592.728 137.539 587.945 132.553C583.161 127.568 579.752 121.819 577.717 115.307C575.783 108.795 574.816 102.181 574.816 95.4658C574.816 88.7504 575.834 82.1876 577.869 75.7774C579.905 69.2655 583.263 63.5167 587.945 58.531C592.728 53.4436 598.682 50.7472 605.806 50.442H659.083ZM653.893 120.038C657.76 119.835 660.966 118.41 663.51 115.765C666.156 113.018 668.039 109.863 669.158 106.302C670.278 102.741 670.838 99.1288 670.838 95.4658C670.838 91.8029 670.227 88.2417 669.006 84.7822C667.886 81.221 666.054 78.0668 663.51 75.3196C660.966 72.5723 657.76 71.097 653.893 70.8935H610.538C606.671 71.097 603.465 72.5723 600.921 75.3196C598.376 78.0668 596.493 81.221 595.272 84.7822C594.153 88.2417 593.593 91.8029 593.593 95.4658C593.593 99.1288 594.153 102.741 595.272 106.302C596.392 109.863 598.224 113.018 600.768 115.765C603.414 118.41 606.671 119.835 610.538 120.038H653.893Z" fill="#006974"/>
</svg>
